<svg xmlns="http://www.w3.org/2000/svg" viewBox="0 0 100 100" width="100%" height="100%">
  <circle cx="50" cy="50" r="46" fill="#0D0957" />
  <!-- Circular embracing hands: two hands gently curving together in protective care -->
  <g fill="none" stroke="#35F5AD" stroke-width="4.5" stroke-linecap="round" stroke-linejoin="round">
    <!-- Top-left embracing hand & arm curve -->
    <path d="M 26 42 C 24 30 35 20 48 20 C 58 20 66 26 70 34" />
    <path d="M 70 34 C 72 38 68 44 62 44 C 56 44 52 40 50 36 C 46 32 40 33 37 38" />
    
    <!-- Bottom-right embracing hand & arm curve -->
    <path d="M 74 58 C 76 70 65 80 52 80 C 42 80 34 74 30 66" />
    <path d="M 30 66 C 28 62 32 56 38 56 C 44 56 48 60 50 64 C 54 68 60 67 63 62" />
    
    <!-- Central protective heart/connection motif -->
    <circle cx="50" cy="50" r="4.5" fill="#35F5AD" />
  </g>
</svg>
